<svg id="Layer_1" data-name="Layer 1" xmlns="http://www.w3.org/2000/svg" viewBox="0 0 1489.8 671.86"><defs><style>.cls-1{fill:#fff;}</style></defs><path class="cls-1" d="M1064.36,43.38H425.52V28.15C425.52,12.56,439.46,0,456.59,0H1033.3c17.2,0,31.06,12.63,31.06,28.15Z"/><path class="cls-1" d="M198.1,628.48H438.66v15.23c0,15.59-13.93,28.15-31.06,28.15H229.17c-17.21,0-31.07-12.63-31.07-28.15Z"/><path class="cls-1" d="M1051.22,628.48h240.56v15.23c0,15.59-13.94,28.15-31.07,28.15H1082.28c-17.2,0-31.06-12.63-31.06-28.15Z"/><path class="cls-1" d="M1354.23,645.08H135.57C60.7,645.08,0,590.08,0,522.23V162.55C0,94.7,60.7,39.7,135.57,39.7H1354.23c74.88,0,135.57,55,135.57,122.85V522.23C1489.8,590.08,1429.11,645.08,1354.23,645.08Z"/><path d="M1345.55,603.65H144.26c-54.41,0-98.54-40-98.54-89.29V170.42c0-49.3,44.13-89.29,98.54-89.29H1345.55c54.4,0,98.53,40,98.53,89.29V514.36C1444.16,563.66,1400,603.65,1345.55,603.65Z"/><path class="cls-1" d="M1362,151.72a5.66,5.66,0,0,1-2,4.34,7.26,7.26,0,0,1-9.57,0,5.72,5.72,0,0,1,0-8.67,7.26,7.26,0,0,1,9.57,0A5.64,5.64,0,0,1,1362,151.72Z"/><path class="cls-1" d="M141.39,151.72a5.65,5.65,0,0,1-2,4.34,7.27,7.27,0,0,1-9.58,0,5.74,5.74,0,0,1,0-8.67,7.27,7.27,0,0,1,9.58,0A5.63,5.63,0,0,1,141.39,151.72Z"/><path class="cls-1" d="M1362,533.13a5.67,5.67,0,0,1-2,4.34,7.26,7.26,0,0,1-9.57,0,5.73,5.73,0,0,1,0-8.68,7.26,7.26,0,0,1,9.57,0A5.67,5.67,0,0,1,1362,533.13Z"/><path class="cls-1" d="M141.39,533.13a5.66,5.66,0,0,1-2,4.34,7.27,7.27,0,0,1-9.58,0,5.75,5.75,0,0,1,0-8.68,7.27,7.27,0,0,1,9.58,0A5.66,5.66,0,0,1,141.39,533.13Z"/></svg>