<svg id="Layer_1" data-name="Layer 1" xmlns="http://www.w3.org/2000/svg" viewBox="0 0 1071.76 890.5"><defs><style>.cls-1{fill:#252525;}</style></defs><path class="cls-1" d="M0,707.14,101.21,890.5,940.37,427.3,839.16,243.94ZM845.67,399.27,637.54,514.16l-32.73-59.29L813,340Z"/><rect class="cls-1" x="724.57" y="134.72" width="71.82" height="71.82" transform="translate(12.24 388.75) rotate(-28.9)"/><rect class="cls-1" x="212.14" y="342.21" width="71.82" height="71.82" transform="translate(-151.84 166.96) rotate(-28.9)"/><rect class="cls-1" x="641.27" y="692.1" width="71.82" height="71.82" transform="translate(-267.49 417.9) rotate(-28.9)"/><rect class="cls-1" x="930.27" y="581.57" width="68.83" height="206.61" transform="translate(-210.85 551.47) rotate(-28.9)"/><rect class="cls-1" x="930.27" y="581.57" width="68.83" height="206.61" transform="translate(831.28 1860.41) rotate(-118.9)"/><rect class="cls-1" x="432.92" y="-0.41" width="69.5" height="276.36" transform="translate(-8.34 243.16) rotate(-28.9)"/><rect class="cls-1" x="433.22" y="0.13" width="69.5" height="276.36" transform="translate(573.03 614.84) rotate(-118.9)"/></svg>