<svg id="Layer_1" data-name="Layer 1" xmlns="http://www.w3.org/2000/svg" viewBox="0 0 1132.08 1132.08"><defs><style>.cls-1{fill:none;stroke:#252525;stroke-miterlimit:10;stroke-width:11px;}.cls-2{fill:#232323;}</style></defs><circle class="cls-1" cx="566.04" cy="566.04" r="560.54"/><path class="cls-2" d="M1123.07,609.59c-3.29,284-251.49,513.36-557.15,513.36C263.94,1123,18.07,899.13,9,619.83c52.56,39.83,93.37,45.69,120.55,44,53.25-3.37,66.87-30.28,140.48-53.75,86.55-27.59,166.17-19.08,189.7-15.93,57.91,7.74,60.14,21,159,40.47,56,11,84.13,17.1,114.13,14,79.38-8.15,87.31-48.61,150.51-50.25,70.74-1.83,93.83,48,165.56,39.73C1082.5,634.23,1108.05,619.79,1123.07,609.59Z"/></svg>