<svg id="Layer_1" data-name="Layer 1" xmlns="http://www.w3.org/2000/svg" viewBox="0 0 125.76 34.81"><defs><style>.cls-1{opacity:0.69;}.cls-2{fill:#fff;}</style></defs><g class="cls-1"><polygon class="cls-2" points="0 25.02 4.15 25.02 4.15 14.58 16.65 14.58 16.65 25.02 20.84 25.02 20.84 0 16.65 0 16.65 10.4 4.15 10.4 0 14.58 0 25.02"/><path class="cls-2" d="M26,14.62H42.64V10.47H26ZM26,25H42.64V20.84H30.13L26,24.66ZM30.13,4.18H42.64V0H26Z"/><path class="cls-2" d="M47.78,25H64.44V20.84H51.93Zm0-5.65,4.15-4.18V0H47.78Z"/><path class="cls-2" d="M69.58,25H86.24V20.84H73.73Zm0-5.65,4.15-4.18V0H69.58Z"/><path class="cls-2" d="M95.57,12.51A8,8,0,0,1,98,6.65a8,8,0,0,1,5.89-2.47,7.87,7.87,0,0,1,5.86,2.47,7.89,7.89,0,0,1,2.47,5.86,8,8,0,0,1-2.47,5.9,8,8,0,0,1-5.86,2.43,8.3,8.3,0,0,1-8.32-8.33ZM103.89,25a11.92,11.92,0,0,0,8.83-3.68,11.83,11.83,0,0,0,3.72-8.83,12,12,0,0,0-3.72-8.83,12.42,12.42,0,0,0-17.65,0,12,12,0,0,0-3.69,8.83,11.89,11.89,0,0,0,3.69,8.83A11.92,11.92,0,0,0,103.89,25Z"/><polygon class="cls-2" points="116.26 34.81 125.77 25.3 125.77 21.16 121.58 21.16 121.58 25.3 116.26 34.81"/></g></svg>