<svg id="Layer_1" data-name="Layer 1" xmlns="http://www.w3.org/2000/svg" viewBox="0 0 96.91 89.05"><defs><style>.cls-1{fill:#fff;stroke:#7a7a7a;stroke-miterlimit:10;stroke-width:3px;}</style></defs><path class="cls-1" d="M74.34,81.58l-35,5.94L1.81,81.58S3.51,73.86,6.28,71c.87-.89,2-1.8,8.07-4.83,9.32-4.65,11.08-4.66,13.26-7.36,2.45-3,4-7.62,2.33-9.86-.94-1.3-2.1-.63-3.76-2.15-1.07-1-1.85-2.19-3.05-8.06-.79-3.89-1.25-7.21-1.61-10.22-.46-3.83-.52-5.76-.72-7C20.67,20.69,19.72,14.26,23,9c3.37-5.49,9.57-6.9,10.93-7.17a17.06,17.06,0,0,1,4.19-.31,17.06,17.06,0,0,1,4.19.31C43.63,2.1,49.82,3.51,53.19,9l.2.33c3,5.2,2.09,11.38,2,12.21-.2,1.23-.27,3.16-.73,7-.36,3-.82,6.33-1.6,10.22-.17.81-.32,1.53-.47,2.16-1,4-1.67,5.07-2.59,5.9-1.65,1.52-2.81.85-3.76,2.15-1.54,2.13-.27,6.36,2,9.38.11.16.24.32.36.48,2.18,2.7,3.94,2.71,13.26,7.36,6.11,3,7.2,3.94,8.07,4.83,1.25,1.29,2.35,3.83,3.14,6.11S74.34,81.58,74.34,81.58Z"/><path class="cls-1" d="M95.08,73.37,73,77.12c-.79-2.28-1.89-4.82-3.14-6.11-.87-.89-2-1.8-8.07-4.83-9.32-4.65-11.08-4.66-13.26-7.36-.12-.16-.25-.32-.36-.48,4.49-2.09,5.74-2.46,7.22-4.29,2.09-2.59,3.36-6.48,2-8.38-.81-1.11-1.8-.54-3.2-1.83a5.72,5.72,0,0,1-1.63-2.93c.15-.63.3-1.35.47-2.16.78-3.89,1.24-7.21,1.6-10.22.46-3.83.53-5.76.73-7,.13-.83,1-7-2-12.21a15.34,15.34,0,0,1,7.33-3.69,14.75,14.75,0,0,1,3.55-.27,14.73,14.73,0,0,1,3.56.27c1.17.23,6.42,1.43,9.29,6.09,2.74,4.46,1.94,9.93,1.82,10.65-.17,1-.21,2.69-.61,5.94C78,30.88,77.64,33.69,77,37c-1,5-1.69,6-2.6,6.85-1.4,1.29-2.38.72-3.19,1.83-1.38,1.9-.1,5.79,2,8.38,1.85,2.29,3.35,2.3,11.27,6.23,5.17,2.58,6.11,3.36,6.85,4.12C93.44,66.62,95.08,73.37,95.08,73.37Z"/></svg>