<svg id="Layer_1" data-name="Layer 1" xmlns="http://www.w3.org/2000/svg" xmlns:xlink="http://www.w3.org/1999/xlink" viewBox="0 0 953.5 168.5"><defs><style>.cls-1,.cls-6{fill:none;}.cls-2{clip-path:url(#clip-path);}.cls-3{clip-path:url(#clip-path-2);}.cls-4,.cls-5{fill:#fff;}.cls-5{stroke:#252525;opacity:0.13;}.cls-5,.cls-6{stroke-miterlimit:10;}.cls-6{stroke:#fff;stroke-width:2px;}</style><clipPath id="clip-path"><rect class="cls-1" width="953.5" height="168.5"/></clipPath><clipPath id="clip-path-2"><rect class="cls-1" x="-71.61" y="-27.99" width="1095.24" height="253.8"/></clipPath></defs><g class="cls-2"><g class="cls-3"><path class="cls-4" d="M200,43.61V16.48l98.65,88.76,8.28,7.59V10.27h16.79V154.92ZM328.81,5.21H301.9v96.35L195,5.21v40.7L328.81,166.18Z"/><path class="cls-4" d="M595.57,153.54V17.63l16.56,16.55V137ZM617.19,32.11,590.51,5.44V166l26.68-26.9Z"/><path class="cls-4" d="M655.36,40.62V17.4l72.21,71.75L731,92.83l3.45-3.68,72-71.75V161.13H789.89V57.87L731,116.51ZM811.51,5.21,731,85.7,650.3,5.21V42.69l80.72,81,53.81-53.81v96.35h26.68Z"/><path class="cls-4" d="M856.58,10.27h90.15V27.06H873.37ZM855,161.13l18.4-16.79h73.36v16.79Zm-5.29-66.92V77.42h97.05V94.21Zm-5.06-89,26.68,26.9h80.49V5.21Zm0,94.05H951.79V72.59H844.62Zm26.68,40-26.68,24.6v2.3H951.79v-26.9Z"/><path class="cls-4" d="M122.53,44.3Q105.28,27.05,81.14,27.06c-16.1,0-29.9,5.74-41.63,17.24-11.27,11.5-17,25.3-17,41.4,0,15.86,5.75,29.89,17,41.62,11.73,11.27,25.76,17,41.63,17a57.52,57.52,0,0,0,41.39-17c11.5-11.73,17.25-25.76,17.25-41.62Q139.78,61.55,122.53,44.3Zm-95,41.4A51.58,51.58,0,0,1,43.19,48q15.87-15.87,38-15.87A50.91,50.91,0,0,1,118.85,48,50.91,50.91,0,0,1,134.72,85.7q0,22.06-15.87,37.94a51.57,51.57,0,0,1-37.71,15.64c-14.72,0-27.37-5.29-37.95-15.64C32.84,113.06,27.55,100.41,27.55,85.7Zm-21.84,0c0-20.93,7.13-38.41,22.07-53.36C42.5,17.4,60,10.27,81.14,10.27s38.4,7.13,53.35,22.07,22.3,32.43,22.3,53.36c0,21.15-7.36,38.63-22.3,53.35-15,14.95-32.2,22.08-53.35,22.08S42.73,154,27.78,139.05,5.71,106.85,5.71,85.7Zm-5.06,0c0,22.3,7.82,41.16,23.68,56.8,15.64,15.87,34.5,23.68,56.81,23.68s41.16-7.81,56.8-23.68c15.86-15.41,23.91-34.27,23.91-56.8,0-22.08-8-41.17-23.91-56.8C122.3,13,103.44,5.21,81.14,5.21,58.6,5.21,39.74,13,24.33,28.9,8.47,44.53.65,63.62.65,85.7Z"/></g><path class="cls-4" d="M468.86,162.73V146h16.77v16.77Zm-5.05,5.05h26.88V140.9H463.81Zm-48.47-139V12H539.16V28.8H485.63V55.67H468.86V28.8ZM544.22,7H410.28V33.85h53.53V60.73h26.88V33.85h53.53Z"/><path class="cls-5" d="M135.53,84.77c0,.31,0,.77,0,1.33a17.65,17.65,0,0,1-1.65,6.42c-2.61,5.76-4.3,17.86-9.74,26.11-9.39,14.25-28.78,20.52-44.48,20.17a54.64,54.64,0,0,1-23.9-6.06s-14.65-7.72-22.5-23a58.46,58.46,0,0,1-3.67-9.21,51.8,51.8,0,0,1-1.38-6.2C28.14,94,28,93,27.87,91.82a52.61,52.61,0,0,1-.33-6.17c1.39,2,3.68,4.51,7,5.08,4.81.82,6.68-3.29,14.34-6.18C57,81.48,66,82,71.1,83.65c.69.23,2.83,1,6.14,2,1.9.58,4.54,1.39,7,2a48.21,48.21,0,0,0,10.52,1.77c8.65.08,9.53-5.91,16.75-5.77,6.63.13,8.38,5.21,15.15,4.79A16.2,16.2,0,0,0,135.53,84.77Z"/><path class="cls-6" d="M133.74,86.43c-.33,31.56-24.82,57-55,57-29.8,0-54.06-24.87-54.95-55.91C29,92,33,92.64,35.7,92.45c5.26-.38,6.6-3.37,13.86-6a39.59,39.59,0,0,1,18.72-1.77C74,85.57,74.22,87,84,89.2c5.53,1.23,8.3,1.9,11.26,1.56,7.83-.9,8.62-5.4,14.85-5.58,7-.21,9.26,5.33,16.34,4.41A15.53,15.53,0,0,0,133.74,86.43Z"/></g></svg>