<svg id="Layer_1" data-name="Layer 1" xmlns="http://www.w3.org/2000/svg" viewBox="0 0 105.2 113"><defs><style>.cls-1{fill:#fff;stroke:#7a7a7a;stroke-miterlimit:10;stroke-width:3px;}</style></defs><path class="cls-1" d="M103.67,76.83c0-8.34.07-16.68,0-25-.08-7.55-2.81-13.86-8.89-18.62C82.2,23.33,69.63,13.49,57.21,3.46,53.79.7,51.16,1,47.86,3.61q-18.63,15-37.55,29.73A21.37,21.37,0,0,0,1.63,50.57c-.22,17.39-.1,34.8-.07,52.2,0,5.87,3.15,8.69,8.93,8.7,7.15,0,14.3,0,21.45,0,5.88,0,8.71-3.14,8.75-8.91,0-5.24,0-10.49,0-15.73,0-14.12.1-14.22,14.51-14,.47,0,1,0,1.43,0,5.35-.2,7.92,2.36,7.87,7.73q-.1,10.38,0,20.74c.09,7.7,2.51,10.07,10.35,10.15,6.44.06,12.87-.06,19.31,0,6.59.09,9.57-3.16,9.5-9.64C103.62,93.52,103.68,85.17,103.67,76.83Z"/><path class="cls-1" d="M103.68,76.83c0,8.34-.06,16.69,0,25,.07,6.48-2.91,9.73-9.5,9.64-6.44-.09-12.87,0-19.31,0C67,111.39,64.62,109,64.53,101.32q-.12-10.36,0-20.74c0-5.37-2.52-7.93-7.87-7.73-.48,0-1,0-1.43,0-14.41-.23-14.51-.13-14.51,14,0,5.24,0,10.49,0,15.73,0,5.77-2.87,8.88-8.75,8.91-7.15,0-14.3,0-21.45,0-5.78,0-8.92-2.83-8.93-8.7,0-17.4-.15-34.81.07-52.2a21.37,21.37,0,0,1,8.68-17.23Q29.2,18.61,47.86,3.61C51.16,1,53.79.7,57.21,3.46c12.42,10,25,19.87,37.56,29.72,6.08,4.76,8.81,11.07,8.89,18.62C103.74,60.15,103.67,68.49,103.68,76.83Z"/></svg>