<svg preserveAspectRatio="none" id="Layer_1" data-name="Layer 1" xmlns="http://www.w3.org/2000/svg" xmlns:xlink="http://www.w3.org/1999/xlink" viewBox="0 0 1920 1080"><defs><style>.cls-1{fill:url(#linear-gradient);}.cls-2,.cls-3,.cls-5{stroke-miterlimit:10;}.cls-2,.cls-3{stroke-width:2px;}.cls-2{fill:url(#linear-gradient-2);stroke:url(#linear-gradient-3);}.cls-3{fill:url(#linear-gradient-4);stroke:url(#linear-gradient-5);}.cls-4{fill:#7f53a8;}.cls-5{fill:none;stroke:#fff;stroke-width:1.75px;}</style><linearGradient id="linear-gradient" x1="6.17" y1="1090.69" x2="1913.83" y2="-10.69" gradientUnits="userSpaceOnUse"><stop offset="0" stop-color="#020003"/><stop offset="0.22" stop-color="#050009"/><stop offset="0.5" stop-color="#0c0119"/><stop offset="0.82" stop-color="#180235"/><stop offset="1" stop-color="#200347"/></linearGradient><linearGradient id="linear-gradient-2" x1="1904.07" y1="2919.71" x2="1342.24" y2="1946.6" gradientTransform="translate(-297.32 -1893.15)" gradientUnits="userSpaceOnUse"><stop offset="0" stop-color="#fff" stop-opacity="0"/><stop offset="1" stop-color="#fff" stop-opacity="0.4"/></linearGradient><linearGradient id="linear-gradient-3" x1="1623.16" y1="2904.65" x2="1623.16" y2="1961.65" gradientTransform="translate(-297.32 -1893.15)" gradientUnits="userSpaceOnUse"><stop offset="0" stop-color="#fff" stop-opacity="0"/><stop offset="0.07" stop-color="#fff" stop-opacity="0.09"/><stop offset="0.25" stop-color="#fff" stop-opacity="0.3"/><stop offset="0.42" stop-color="#fff" stop-opacity="0.48"/><stop offset="0.59" stop-color="#fff" stop-opacity="0.62"/><stop offset="0.74" stop-color="#fff" stop-opacity="0.72"/><stop offset="0.89" stop-color="#fff" stop-opacity="0.78"/><stop offset="1" stop-color="#fff" stop-opacity="0.8"/></linearGradient><linearGradient id="linear-gradient-4" x1="1904.07" y1="2919.71" x2="1342.24" y2="1946.6" xlink:href="#linear-gradient-2"/><linearGradient id="linear-gradient-5" x1="1623.16" y1="2904.65" x2="1623.16" y2="1961.65" xlink:href="#linear-gradient-3"/></defs><polyline class="cls-1" points="0 1080 0 0 1920 0 1920 1080"/><rect class="cls-2" x="1001.95" y="69.5" width="647.79" height="941" rx="20.73" transform="matrix(0, 1, -1, 0, 1865.84, -785.84)"/><rect class="cls-3" x="1001.95" y="69.5" width="647.79" height="941" rx="20.73" transform="matrix(0, 1, -1, 0, 1865.84, -785.84)"/><path class="cls-4" d="M717.56,565.92C702.76,720.77,570.85,839.13,418,837.51c-148.6-1.58-275.68-116.09-292.7-266.27,15.39,11.21,38.07,23.66,65,22.57,27.3-1.09,28-13.83,73.3-28.53s86.7-10.12,99-8.45c30.22,4.11,31.38,11.15,82.95,21.48,29.25,5.86,43.91,9.08,59.56,7.44,41.42-4.33,45.56-25.8,78.53-26.67,36.39-1,46.3,23,86.39,21.09C690.34,579.2,706.74,572,717.56,565.92Z"/><circle class="cls-5" cx="421.17" cy="540" r="297.51"/></svg>