<svg preserveAspectRatio="none" id="Layer_1" data-name="Layer 1" xmlns="http://www.w3.org/2000/svg" xmlns:xlink="http://www.w3.org/1999/xlink" viewBox="0 0 391.45 190.56"><defs><style>.cls-1,.cls-5{fill:url(#linear-gradient);}.cls-2,.cls-5{stroke:#060711;stroke-miterlimit:10;}.cls-2{fill:url(#linear-gradient-2);}.cls-3{opacity:0.46;}.cls-4{mask:url(#mask);}</style><linearGradient id="linear-gradient" x1="195.73" y1="7.11" x2="195.73" y2="47.33" gradientUnits="userSpaceOnUse"><stop offset="0" stop-color="#030303"/><stop offset="0" stop-color="#040404"/><stop offset="0.11" stop-color="#232323"/><stop offset="0.21" stop-color="#3b3b3b"/><stop offset="0.33" stop-color="#4c4c4c"/><stop offset="0.45" stop-color="#565656"/><stop offset="0.6" stop-color="#595959"/></linearGradient><linearGradient id="linear-gradient-2" x1="195.73" y1="0.5" x2="195.73" y2="190.06" gradientTransform="translate(100.45 291.01) rotate(-90)" gradientUnits="userSpaceOnUse"><stop offset="0" stop-color="#00021c"/><stop offset="0.31" stop-color="#000113"/><stop offset="1" stop-color="#000003"/></linearGradient><mask id="mask" x="4.94" y="6.61" width="381.6" height="41.23" maskUnits="userSpaceOnUse"><path class="cls-1" d="M353.51,7.11H38.26C21.54,7.11,7.73,17.46,5.51,30.9,43,40.73,112.85,47.33,192.88,47.33c84.28,0,157.31-7.32,193.06-18C382.94,16.65,369.56,7.11,353.51,7.11Z"/></mask></defs><rect class="cls-2" x="100.95" y="-99.95" width="189.56" height="390.45" rx="35.17" transform="translate(291.01 -100.45) rotate(90)"/><g class="cls-3"><g class="cls-4"><path class="cls-5" d="M353.51,7.11H38.26C21.54,7.11,7.73,17.46,5.51,30.9,43,40.73,112.85,47.33,192.88,47.33c84.28,0,157.31-7.32,193.06-18C382.94,16.65,369.56,7.11,353.51,7.11Z"/></g></g></svg>