<svg id="Layer_1" data-name="Layer 1" xmlns="http://www.w3.org/2000/svg" viewBox="0 0 1872.26 38.15"><defs><style>.cls-1{fill:none;stroke:#fff;stroke-miterlimit:10;stroke-width:2px;}</style></defs><path class="cls-1" d="M1814.49,2.78c1.79,1.74,3.59,3.49,5.37,5.25a.79.79,0,0,0,.62.17h5.29a11.2,11.2,0,0,1,10.76,9.34A11.18,11.18,0,0,1,1828.21,30a10.08,10.08,0,0,1-2.51.29h-5.24a.77.77,0,0,0-.65.22q-2.55,2.58-5.12,5.14a1.58,1.58,0,0,0-.16.22h.62c3.57,0,7.15,0,10.73,0a16.15,16.15,0,0,0,10-3.58,16.18,16.18,0,0,0,5.75-8.65,16,16,0,0,0-2.48-14,16.44,16.44,0,0,0-10.62-6.8,13.1,13.1,0,0,0-2.57-.26h-11.35Z"/><path class="cls-1" d="M1860.1,19.18c-3.49,0-7,0-10.47,0-.43,0-.59.07-.59.55q0,7.8,0,15.59c0,.42.08.57.53.56,1.48,0,3,0,4.46,0,.44,0,.54-.14.53-.55,0-3.34,0-6.67,0-10,0-.43.12-.55.55-.55,5.19,0,10.37,0,15.56,0,.48,0,.61-.13.6-.6,0-1.5,0-3,0-4.51,0-.41-.12-.52-.53-.51C1867.19,19.19,1863.65,19.18,1860.1,19.18Z"/><path class="cls-1" d="M1802.19,35.75l5.31-5.27a.71.71,0,0,0,.17-.57V8.52a.7.7,0,0,0-.19-.56q-2.57-2.57-5.14-5.12s-.08,0-.15-.09Z"/><path class="cls-1" d="M1849,2.69,1854.41,8a.75.75,0,0,0,.57.17h15.8c.36,0,.48-.09.47-.46q0-2.36,0-4.71c0-.29,0-.44-.39-.44h-21.61Z"/><path class="cls-1" d="M1,2.77c0,2.35,0,4.7,0,7.05a1.32,1.32,0,0,0,.54.95c5,5.16,10.07,10.3,15.08,15.48.52.53.77.42,1.23-.05,3-3.09,6-6.16,9-9.22.28-.28.49-.67.94-.79a2.34,2.34,0,0,1,.11,1.22c0,5.64,0,11.29,0,16.93,0,1,.28,1.25,1.2,1.19a25,25,0,0,1,3.24,0c.81,0,1-.28,1-1.05,0-5.56,0-11.13,0-16.69v-15c-.55,0-.73.44-1,.71C27.53,8.36,22.75,13.22,18,18.13c-.66.68-1,.67-1.65,0C11.6,13.23,6.8,8.37,2,3.49a9.05,9.05,0,0,1-.69-.91Z"/><path class="cls-1" d="M76.9,35.58c5-.43,10.13.65,15.1-.74,10.88-3.05,15.24-17.26,8-26.14A15.66,15.66,0,0,0,87.17,2.51c-3.42,0-6.84,0-10.57,0,1.52,1.55,2.9,2.86,4.14,4.29a3.52,3.52,0,0,0,3,1.28,25.6,25.6,0,0,1,5.8.16,11,11,0,0,1-.33,21.56,45,45,0,0,1-6.36.17,2,2,0,0,0-1.57.67c-1.49,1.54-3,3-4.56,4.54Z"/><path class="cls-1" d="M144.76,2.61c1,1.73,1.91,3.33,2.79,4.95.31.56.78.49,1.26.49h10a5.34,5.34,0,0,1,5.45,5.3A5.46,5.46,0,0,1,158.93,19c-1.52.05-3.05,0-4.83,0,.82,1.48,1.55,2.81,2.3,4.14,2.15,3.79,4.32,7.57,6.44,11.37a1.59,1.59,0,0,0,1.65,1c1.63-.08,3.27,0,5.15,0-.94-1.7-1.8-3.27-2.67-4.83-1.16-2.09-2.31-4.18-3.51-6.24-.33-.57-.28-.78.3-1.09a10.75,10.75,0,0,0,5.7-7.77c1.43-7.78-4.76-13.09-10-13.06-4.73,0-9.47,0-14.21,0A4.6,4.6,0,0,0,144.76,2.61Z"/><path class="cls-1" d="M37.65,35.51c2,0,3.77,0,5.56,0,.66,0,.78-.49,1-.91q3.8-7.72,7.56-15.44c.65-1.33,1.31-2.65,2-4,.47,0,.49.37.61.62,1.27,2.58,2.56,5.16,3.79,7.77a1.33,1.33,0,0,0,1.44.94c1.3-.08,2.61,0,3.91,0s1.24,0,.7-1.11q-4.32-8.84-8.67-17.68c-.51-1-1-2.08-1.64-3.35Z"/><path class="cls-1" d="M142.55,18.93c.45-8.35-7.25-16.53-16.21-16.5s-16.23,8.11-16.17,16.74c.06,8.46,7.46,16.6,16.63,16.41C135,35.41,143.07,27.69,142.55,18.93Z"/><path class="cls-1" d="M212.81,2.56c-4.14,0-8.28,0-12.42,0-.85,0-1.1.25-1,1.1.06,1.18,0,2.37,0,3.54,0,.72.23.91.9.91,2.87,0,5.75,0,8.62,0,.94,0,1.35.18,1.26,1.24s0,2.29,0,3.43c0,.61.15.9.81.88,1.27,0,2.54,0,3.8,0,.65,0,.84-.25.82-.87,0-1.19.06-2.37,0-3.55-.07-.95.3-1.14,1.15-1.12,2.83,0,5.67,0,8.5,0,.86,0,1.2-.2,1.14-1.13a26.26,26.26,0,0,1,0-3.32c.06-.84-.19-1.11-1.05-1.1C221.08,2.59,216.94,2.56,212.81,2.56Z"/><path class="cls-1" d="M233,2.47V35.32l5.15-5.24c.28-.28.18-.65.18-1,0-6.78,0-13.56,0-20.34A1.44,1.44,0,0,0,238,7.61C236.38,6,234.79,4.32,233,2.47Z"/><path class="cls-1" d="M244.8,28.12c1.85-1.91,3.46-3.58,5.08-5.24a1.3,1.3,0,0,0,.31-1c0-6.13,0-12.26,0-18.39,0-.76-.25-1-1-1-1.19,0-2.39,0-3.58,0-.59,0-.87.13-.87.81C244.8,11.47,244.8,19.61,244.8,28.12Z"/><path class="cls-1" d="M273,28.11c1.83-1.89,3.42-3.54,5-5.17a1.43,1.43,0,0,0,.36-1.14c0-6.09,0-12.18,0-18.27,0-.8-.22-1.07-1-1-1.19.06-2.39,0-3.58,0-.52,0-.83.09-.83.74C273,11.42,273,19.59,273,28.11Z"/><path class="cls-1" d="M245,35.51c6.85,0,13.69,0,20.54,0,.63,0,.75-.28.74-.83,0-1.29,0-2.58,0-3.88,0-.67-.24-.83-.85-.83-4.92,0-9.83,0-14.75,0a1.2,1.2,0,0,0-.92.29l-5,4.91Z"/><path class="cls-1" d="M70.06,35.5c-.89-1.82-1.71-3.47-2.51-5.13-.17-.34-.44-.35-.74-.35-1.57,0-3.13,0-4.69,0-.6,0-.73.18-.45.73.71,1.42,1.4,2.85,2.1,4.28a.68.68,0,0,0,.66.49Z"/><path class="cls-1" d="M215.51,32.84c0-2.79,0-2.79-2.72-2.79s-2.69,0-2.69,2.71,0,2.8,2.72,2.8S215.51,35.56,215.51,32.84Z"/><path class="cls-1" d="M126.33,31c5.85.34,11.77-4.63,11.88-11.89A12,12,0,0,0,126.39,6.92a11.83,11.83,0,0,0-11.8,12A11.6,11.6,0,0,0,126.33,31Z"/><path class="cls-1" d="M278.41,35.48q643-1,1286.08,0c41.28.06,154.33.28,195.6.36-.08-1.84-.16-3.69-.23-5.54-27.84-.13-71-.29-123.83-.37-74.45-.12-129.46,0-141.82,0-73.6.14-378.43.19-1213.19,0"/><path class="cls-1" d="M285.75,30h-6.86a1.06,1.06,0,0,0-.83.25l-5.06,5a1.63,1.63,0,0,0,1.17.23h10.7"/><path class="cls-1" d="M1769.39,35.88c2,0,4,0,5.95,0,.32,0,.39-.2.5-.42q2.34-4.7,4.69-9.41,5.68-11.38,11.39-22.78l.18-.37c.12-.21.08-.32-.18-.32h-5.6c-.3,0-.36.22-.46.42l-4.29,8.5q-6,11.92-11.93,23.84C1769.56,35.49,1769.5,35.65,1769.39,35.88Z"/></svg>