<svg xmlns="http://www.w3.org/2000/svg" viewBox="0 0 266.21582 223.13165"><defs><style>.a{fill:#fff;}.b{fill:none;stroke:#fff;stroke-linecap:round;stroke-linejoin:round;stroke-width:20.87943px;}</style></defs><path class="a" d="M27.54023,174.35156q3.47754,3.90088,3.47851,10.79981A17.93789,17.93789,0,0,1,28.6496,194.332a21.10893,21.10893,0,0,1-6.30078,6.80957A25.59387,25.59387,0,0,1,13.8,205.01172l-2.40039.59961a1.17013,1.17013,0,0,1-1.14062-.53955,2.1556,2.1556,0,0,1-.53907-1.38037v-8.33985a1.97914,1.97914,0,0,1,.48047-1.25976,3.08851,3.08851,0,0,1,1.13867-.90039l1.6211-.65967q4.19824-1.73951,4.19922-6.72022a5.49232,5.49232,0,0,0-.75-3.2998,3.54764,3.54764,0,0,0-2.91016-.96H2.57929a1.54961,1.54961,0,0,1-1.13867-.48,1.54849,1.54849,0,0,1-.48047-1.14014V163.73145a1.54972,1.54972,0,0,1,.48047-1.13965,1.55381,1.55381,0,0,1,1.13867-.48047H11.759a1.64085,1.64085,0,0,1,1.62109,1.62012v6.72021h3.11914Q24.06074,170.45166,27.54023,174.35156Z"/><path class="a" d="M33.98944,179.90137a1.2669,1.2669,0,0,1-.38867-.92969,1.36259,1.36259,0,0,1,.0586-.41992l5.70117-14.52a2.60308,2.60308,0,0,1,2.58008-1.92041h6.05859a1.29283,1.29283,0,0,1,.99023.42041,1.25347,1.25347,0,0,1,.33008,1.02l-2.21875,14.3999a3.30066,3.30066,0,0,1-.81054,1.6499,2.27636,2.27636,0,0,1-1.76954.69043H34.91913A1.26735,1.26735,0,0,1,33.98944,179.90137Zm16.32032,0a1.26873,1.26873,0,0,1-.39063-.92969,1.30375,1.30375,0,0,1,.06055-.41992l5.70117-14.52a2.60089,2.60089,0,0,1,2.57813-1.92041h6.06054a1.29287,1.29287,0,0,1,.99024.42041,1.25354,1.25354,0,0,1,.33008,1.02l-2.22071,14.3999a3.28206,3.28206,0,0,1-.80859,1.6499,2.27788,2.27788,0,0,1-1.77149.69043H51.23944A1.26731,1.26731,0,0,1,50.30976,179.90137Z"/><path class="a" d="M70.19843,189.832a1.55516,1.55516,0,0,1-.47852-1.14062V172.07178a1.63656,1.63656,0,0,1,1.61914-1.62012H82.07929a1.63656,1.63656,0,0,1,1.61914,1.62012v16.61963a1.63569,1.63569,0,0,1-1.61914,1.62011H71.33905A1.55532,1.55532,0,0,1,70.19843,189.832Z"/><path class="a" d="M93.41913,201.32178q-4.56151-3.9895-4.56054-11.06983V172.07178a1.64,1.64,0,0,1,1.62109-1.62012h8.87891a1.64,1.64,0,0,1,1.62109,1.62012v17.87988a3.57505,3.57505,0,0,0,1.55859,3.27,7.51684,7.51684,0,0,0,4.08008.99023,5.37734,5.37734,0,0,0,3.541-1.05029,3.94012,3.94012,0,0,0,1.25976-3.21V186.5918q0-5.2793-2.16015-5.28028a6.90454,6.90454,0,0,0-2.40039.41993,1.94166,1.94166,0,0,1-.59961.12011,1.2908,1.2908,0,0,1-.99024-.41992,1.60858,1.60858,0,0,1-.38867-1.13965v-6.78027a2.60473,2.60473,0,0,1,1.43945-2.46q1.43849-.77929,5.459-.78028a15.18835,15.18835,0,0,1,7.56054,1.58985,8.69465,8.69465,0,0,1,3.90039,4.68066,23.3277,23.3277,0,0,1,1.14063,7.94971v1.43994c0,.52051.00781,1.28076.0293,2.28027a19.35966,19.35966,0,0,1-.0293,2.04q-.36034,7.0796-4.74023,11.06983-4.38282,3.991-12.96094,3.98974Q97.97773,205.31152,93.41913,201.32178Z"/><path class="a" d="M154.49921,204.26172a1.45283,1.45283,0,0,1-.48047-1.11035V185.45166q0-4.5-4.43945-4.5H139.5578a1.64,1.64,0,0,1-1.61914-1.61963v-7.26025a1.64,1.64,0,0,1,1.61914-1.62012h10.38086a29.19479,29.19479,0,0,1,9.62891,1.3501,10.93764,10.93764,0,0,1,5.82031,4.55957q2.00978,3.21093,2.00977,8.73047v18a1.63741,1.63741,0,0,1-1.61914,1.62011H155.63788A1.60628,1.60628,0,0,1,154.49921,204.26172Z"/><path class="a" d="M173.15741,204.23145a1.55413,1.55413,0,0,1-.48047-1.13965v-31.02a1.64,1.64,0,0,1,1.6211-1.62012h10.73828a1.64,1.64,0,0,1,1.62109,1.62012v31.02a1.64083,1.64083,0,0,1-1.62109,1.62011H174.298A1.5544,1.5544,0,0,1,173.15741,204.23145Z"/><path class="a" d="M221.15741,170.93164a1.55752,1.55752,0,0,1,.48047,1.14014V179.332a1.63981,1.63981,0,0,1-.45117,1.10938,1.48218,1.48218,0,0,1-1.16992.51025h-2.09961q-1.37988,2.46094-1.38086,7.43994v15a1.10624,1.10624,0,0,1-.62891.93018,2.42028,2.42028,0,0,1-1.291.39013H204.59687a1.2412,1.2412,0,0,1-1.32032-1.32031V187.55176q0-4.62012,1.02149-6.6001H192.47773a1.64,1.64,0,0,1-1.6211-1.61963v-7.26025a1.64,1.64,0,0,1,1.6211-1.62012h27.53906A1.56269,1.56269,0,0,1,221.15741,170.93164Z"/><path class="a" d="M259.73554,173.96191q4.01954,3.50978,4.02148,11.12989v18a1.64083,1.64083,0,0,1-1.62109,1.62011H245.216a1.63739,1.63739,0,0,1-1.61914-1.62011V195.832a1.63569,1.63569,0,0,1,1.61914-1.62012h5.16015v-8.5205a4.52069,4.52069,0,0,0-.959-3.17969,3.45479,3.45479,0,0,0-2.64063-1.02h-3.541l-5.39844,21.6001a1.64083,1.64083,0,0,1-1.62109,1.62011h-9.7793a1.83148,1.83148,0,0,1-1.25977-.48046,1.05579,1.05579,0,0,1-.36132-1.13965l6.541-21.54h-4.5a1.64,1.64,0,0,1-1.62109-1.62012v-7.85986a1.64,1.64,0,0,1,1.62109-1.62012h22.08008Q255.716,170.45166,259.73554,173.96191Z"/><path class="b" d="M152.65089,83.84381l20.44657,20.16736a39.96032,39.96032,0,0,0,57.51762-1.31729c14.69287-15.92466,13.44116-40.88176-1.95135-56.1312l0,0a25.35651,25.35651,0,0,0-35.84987.15808l-10.2205,10.30569"/><path class="b" d="M95.068,55.61848l-5.07812-5.09224a38.03942,38.03942,0,1,0,.25116,53.79432l93.0083-93.88085"/><line class="b" x1="134.27818" y1="105.4174" x2="124.05768" y2="115.72309"/></svg>