<svg id="Layer_1" data-name="Layer 1" xmlns="http://www.w3.org/2000/svg" xmlns:xlink="http://www.w3.org/1999/xlink" viewBox="0 0 1282.88 987.07"><defs><style>.cls-1{fill:none;}.cls-2{clip-path:url(#clip-path);}.cls-3{fill:#232323;}.cls-4{clip-path:url(#clip-path-2);}</style><clipPath id="clip-path"><rect class="cls-1" width="435.75" height="987.07"/></clipPath><clipPath id="clip-path-2"><rect class="cls-1" x="435.75" width="435.75" height="987.07"/></clipPath></defs><g id="_Mirror_Repeat_" data-name="&lt;Mirror Repeat&gt;"><g class="cls-2"><path class="cls-3" d="M0,984.36C8.44,856.59,49.74,800.1,89.49,772.85c72.94-50,172.32-23.33,212.13-92.43,4.14-7.19,18.15-31.5,12.94-59.43-6.05-32.43-32.85-42.08-65.08-86.77-16.66-23.09-25.08-42.11-35.26-65.08C205.39,449.2,181.71,391.28,179,320c-1.61-42.15-6.08-158.64,78.64-244C272.9,60.54,331.88,1.08,423,0,517.22-1.08,579,61,596.57,78.65,687.88,170.4,680,295.91,677.93,328.13c-1.42,22.49-7.93,89.8-46.1,157.28C607.22,528.91,583,558.62,583,558.62c-23.35,28.68-38.95,40.64-43.39,65.09-5,27.68,7.88,51.47,10.85,56.94,35.64,65.71,136,39.35,205.19,87.87,39.39,27.61,77.84,85.89,79.53,218.55Z"/></g></g><g id="_Mirror_Repeat_2" data-name="&lt;Mirror Repeat&gt;"><g class="cls-4"><path class="cls-3" d="M871.5,984.36C863.06,856.59,821.76,800.1,782,772.85c-72.94-50-172.32-23.33-212.13-92.43-4.14-7.19-18.14-31.5-12.94-59.43,6-32.43,32.85-42.08,65.08-86.77,16.66-23.09,25.09-42.11,35.26-65.08,8.83-19.94,32.52-77.86,35.25-149.15,1.61-42.15,6.08-158.64-78.64-244C598.6,60.54,539.62,1.08,448.47,0,354.28-1.08,292.54,61,274.93,78.65c-91.3,91.75-83.39,217.26-81.36,249.48,1.42,22.49,7.93,89.8,46.1,157.28,24.61,43.5,48.81,73.21,48.81,73.21,23.35,28.68,39,40.64,43.39,65.09,5,27.68-7.88,51.47-10.85,56.94C285.38,746.36,185,720,115.83,768.52,76.44,796.13,38,854.41,36.3,987.07Z"/></g></g><path class="cls-3" d="M735,334.67a515.46,515.46,0,0,1-35.26,138.27l558.77-1.56a120.34,120.34,0,0,0-5.58-130.58Z"/><path class="cls-3" d="M678,512.08c-8.9,27.58-21.84,44.88-32.51,55.8-17.84,18.25-33.77,23.24-43.39,43.38-7.26,15.21-6.94,30.71-5.42,41.73l668.88-6.2a126,126,0,0,0-1.8-130.47Z"/><path class="cls-3" d="M648.2,698a471.84,471.84,0,0,1,94.91,21.69c37.45,12.79,71.81,25.9,100.5,59A168.73,168.73,0,0,1,876,836.35L1261,833.62A127.57,127.57,0,0,0,1263,702.78Z"/></svg>