<svg id="Layer_1" data-name="Layer 1" xmlns="http://www.w3.org/2000/svg" viewBox="0 0 135.57 135.57"><defs><style>.cls-1{fill:#fff;}.cls-2{stroke:#000;stroke-miterlimit:10;stroke-width:4px;}</style></defs><circle class="cls-1" cx="67.79" cy="67.79" r="67.79"/><path class="cls-2" d="M55.79,75.19c0-12.3,20.39-17.1,20.39-26.55,0-5.7-4.94-9.3-13.79-9.3-8.1,0-13.65,2.4-19,5.25l-3.15-11.4A45.1,45.1,0,0,1,63.58,27c16.5,0,25.66,7.65,25.66,20.4,0,16.8-20.7,21.3-20.7,29.4a13,13,0,0,0,2.25,7H58.64A14.34,14.34,0,0,1,55.79,75.19Zm8.85,19a8.86,8.86,0,0,1,9.29,9.15c0,5.4-3.44,9.3-9.29,9.3-5.1,0-9-3.6-9-9.3A8.79,8.79,0,0,1,64.64,94.24Z"/></svg>